<svg width="30" height="30" viewBox="0 0 30 30" fill="none" xmlns="http://www.w3.org/2000/svg">
<path d="M0 15C0 23.2843 6.71573 30 15 30C23.2843 30 30 23.2843 30 15C30 6.71573 23.2843 0 15 0C6.71573 0 0 6.71573 0 15Z" fill="#1DA1F2"/>
<path d="M22.5 10.3125C21.9375 10.5938 21.375 10.6875 20.7188 10.7812C21.375 10.4062 21.8438 9.84375 22.0312 9.09375C21.4688 9.46875 20.8125 9.65625 20.0625 9.84375C19.5 9.28125 18.6562 8.90625 17.8125 8.90625C15.8438 8.90625 14.3438 10.7812 14.8125 12.6562C12.2812 12.5625 10.0312 11.3438 8.4375 9.46875C7.59375 10.875 8.0625 12.6562 9.375 13.5938C8.90625 13.5938 8.4375 13.4063 7.96875 13.2188C7.96875 14.625 9 15.9375 10.4063 16.3125C9.9375 16.4062 9.46875 16.5 9 16.4062C9.375 17.625 10.5 18.5625 11.9062 18.5625C10.7812 19.4062 9.09375 19.875 7.5 19.6875C8.90625 20.5312 10.5 21.0938 12.1875 21.0938C17.9062 21.0938 21.0937 16.3125 20.9062 11.9062C21.5625 11.5312 22.125 10.9688 22.5 10.3125Z" fill="white"/>
</svg>
